<mxfile host="drawio-plugin" modified="2023-10-15T13:24:43.958Z" agent="5.0 (Windows NT 10.0; Win64; x64) AppleWebKit/537.36 (KHTML, like Gecko) Chrome/111.0.0.0 Safari/537.36" etag="xBZowpz5uemNSbWybtu2" version="20.5.3" type="embed"><diagram id="23iRSUPoRavnBvh4doch" name="Page-1"><mxGraphModel dx="1045" dy="720" grid="1" gridSize="10" guides="1" tooltips="1" connect="1" arrows="1" fold="1" page="1" pageScale="1" pageWidth="827" pageHeight="1169" math="0" shadow="0"><root><mxCell id="0"/><mxCell id="1" parent="0"/><mxCell id="2" value="Actor" style="shape=umlActor;verticalLabelPosition=bottom;verticalAlign=top;html=1;outlineConnect=0;align=center;spacing=2;" vertex="1" parent="1"><mxGeometry x="170" y="270" width="30" height="60" as="geometry"/></mxCell><mxCell id="5" value="Zagranie w grę w kości" style="ellipse;whiteSpace=wrap;html=1;" vertex="1" parent="1"><mxGeometry x="274" y="310" width="140" height="80" as="geometry"/></mxCell></root></mxGraphModel></diagram></mxfile>